<?xml version="1.0" encoding="utf-8"?>
<!-- Generator: Adobe Illustrator 19.0.0, SVG Export Plug-In . SVG Version: 6.00 Build 0)  -->
<svg version="1.1" id="Layer_1" xmlns="http://www.w3.org/2000/svg" xmlns:xlink="http://www.w3.org/1999/xlink" x="0px" y="0px"
	 viewBox="0 0 298.9 77.8" style="enable-background:new 0 0 298.9 77.8;" xml:space="preserve">
<style type="text/css">
	.st0{stroke:#000000;stroke-width:4;stroke-miterlimit:10;}
	.st1{fill:#FFFFFF;stroke:#000000;stroke-miterlimit:10;}
</style>
<g id="XMLID_43_">
	<g id="XMLID_2_">
		<path id="XMLID_41_" class="st0" d="M9,72.7c0-0.3,0.1-1,0.2-2s0.2-2.4,0.4-4c0.1-1.6,0.3-3.4,0.5-5.5c0.2-2.1,0.4-4.3,0.6-6.7
			s0.5-4.9,0.7-7.5c0.2-2.6,0.5-5.2,0.8-7.9H6.4c-1.5,0-2.7-0.1-3.3-0.2s-1-0.4-1-0.8c0-0.1,0.1-0.4,0.4-0.9s0.7-1.1,1.1-1.8
			C4,34.7,4.4,34,5,33.2s1-1.6,1.5-2.3s0.9-1.3,1.2-1.8c0.3-0.5,0.6-0.8,0.6-0.9h5.2l0.9-6.8c0.4-3.6,1.1-6.6,2.2-9.1
			c1-2.5,2.3-4.4,3.9-6s3.3-2.6,5.3-3.3s4.1-1,6.4-1s4.7,0.3,7.1,0.8s5,1.3,7.5,2.3c0.5,0.2,1,0.4,1.2,0.6s0.4,0.4,0.4,0.6
			c0,0.2-0.1,0.5-0.3,0.9c-0.9,1.8-1.6,3.2-2,4.3s-0.8,1.9-1.1,2.6s-0.5,1.1-0.6,1.3s-0.4,0.3-0.8,0.3c-0.2,0-0.4,0-0.5-0.1
			c-0.2-0.1-0.4-0.2-0.7-0.3c-1-0.4-2-0.7-3-1c-1-0.3-2-0.5-2.9-0.5c-1.3,0-2.4,0.4-3.3,1.2c-0.9,0.8-1.7,2.3-2.2,4.5
			c-0.3,1.3-0.6,2.7-0.8,4.2c-0.2,1.5-0.4,3-0.5,4.4H41c0.2,0,0.5,0.1,0.7,0.2s0.3,0.4,0.3,0.8c0,0.1-0.2,0.7-0.5,1.5
			c-0.3,0.9-0.8,2-1.5,3.5l-1.5,3.5c-0.2,0.4-0.4,0.7-0.6,0.9c-0.2,0.2-0.7,0.3-1.3,0.4h-7.4c-0.3,3-0.6,5.9-0.9,8.8
			c-0.3,2.9-0.6,5.7-0.8,8.2c-0.3,2.6-0.5,4.8-0.7,6.8c-0.2,2-0.4,3.5-0.5,4.6c0,0.1,0,0.2,0,0.5c0,0.1,0,0.2,0,0.3s0,0.2,0,0.2
			c0,0.3-0.1,0.5-0.3,0.6c-0.2,0.2-0.7,0.3-1.4,0.5l-11.3,4c-0.3,0.1-0.7,0.3-1.2,0.4s-1,0.3-1.5,0.3S9.6,74.2,9.3,74
			C9.1,73.7,9,73.3,9,72.7z"/>
		<path id="XMLID_38_" class="st0" d="M79.1,63.4c0,0.1,0,0.2,0,0.3c0,0.1,0,0.2,0,0.3c0,0.7,0.1,1.3,0.3,1.8
			c0.2,0.5,0.5,0.9,0.8,1.2c0.3,0.3,0.5,0.5,0.8,0.7c0.2,0.2,0.3,0.4,0.3,0.5c0,0.4-0.4,0.8-1.3,1.1l-11.5,4.9c0,0-0.1,0-0.3,0
			c-0.2,0-0.5-0.2-0.7-0.6c-0.2-0.4-0.5-0.9-0.7-1.5c-0.2-0.6-0.4-1.3-0.6-2c-0.2-0.7-0.4-1.4-0.5-2c-1.8,2.1-3.7,3.6-5.8,4.6
			c-2.1,1-4.2,1.5-6.2,1.5c-2.4,0-4.7-0.5-7-1.6s-4.3-2.6-6.1-4.5s-3.2-4.3-4.3-7.1c-1.1-2.8-1.6-5.9-1.6-9.4
			c0-4.1,0.6-7.8,1.8-11.2c1.2-3.4,2.8-6.3,4.8-8.7s4.4-4.3,7.1-5.6s5.6-2,8.6-2c2.1,0,4.2,0.4,6.1,1.3c1.9,0.9,3.7,2,5.4,3.4
			c0.2-0.9,0.3-1.5,0.3-2.1c0-0.5,0.1-0.9,0.2-1.2c0.1-0.3,0.3-0.5,0.6-0.6c0.3-0.1,0.8-0.2,1.4-0.2c2.1-0.3,4.1-0.6,6.2-0.8
			s4.2-0.4,6.4-0.5L79.1,63.4z M66.2,47.3c0.3-1.6,0.5-3.2,0.6-4.6c0.1-1.4,0.2-2.8,0.2-4c-0.5-0.3-1-0.7-1.5-1.1s-1.1-0.7-1.7-1.1
			c-0.6-0.3-1.3-0.6-1.9-0.8s-1.4-0.3-2.1-0.3c-1.5,0-2.8,0.5-3.9,1.5c-1,1-1.9,2.2-2.5,3.7c-0.6,1.5-1.1,3-1.4,4.6
			c-0.3,1.6-0.4,3.1-0.4,4.3c0,4.5,0.6,7.8,1.8,9.9c1.2,2.1,2.8,3.2,5,3.2c0.9,0,1.8-0.2,2.9-0.7c1.1-0.5,2.1-1.2,3.2-2L66.2,47.3z"
			/>
		<path id="XMLID_36_" class="st0" d="M81.6,60.2C81.6,60.2,81.6,60.2,81.6,60.2c0-0.1,0-0.1,0-0.1c0-0.4,0.2-0.6,0.6-0.6
			c0.3,0,0.5,0.1,0.7,0.3c1.1,1.1,2.5,2,3.9,2.7c1.5,0.7,3.1,1,4.8,1c0.5,0,1-0.1,1.6-0.2c0.6-0.1,1.2-0.3,1.7-0.5s1-0.5,1.4-0.9
			c0.4-0.4,0.5-0.9,0.5-1.4c0-0.6-0.2-1.2-0.5-1.7c-0.3-0.5-0.7-1-1.2-1.3c-0.3-0.2-0.8-0.6-1.5-1.1c-0.7-0.5-1.5-1-2.3-1.6
			c-0.8-0.6-1.6-1.1-2.3-1.6c-0.7-0.5-1.2-0.9-1.5-1.1c-1.3-1-2.3-2-3.1-3c-0.8-1-1.3-2-1.7-3.1c-0.4-1.1-0.7-2.2-0.8-3.4
			c-0.1-1.2-0.2-2.4-0.2-3.7c0-2,0.5-3.9,1.6-5.7c1.1-1.8,2.5-3.3,4.2-4.7c1.7-1.3,3.7-2.4,5.9-3.2c2.2-0.8,4.4-1.2,6.7-1.2
			c1.9,0,3.7,0.3,5.6,0.9c1.8,0.6,3.5,1.5,5.1,2.9c0.1,1.8,0.2,3.6,0.3,5.3c0.1,1.7,0.1,3.6,0.3,5.5c0,0.4-0.1,0.6-0.3,0.8
			c-0.2,0.1-0.4,0.2-0.6,0.2c-0.2,0-0.4-0.1-0.5-0.2c-0.7-0.6-1.3-1.3-2-1.9c-0.7-0.6-1.4-1.2-2.2-1.6c-0.8-0.5-1.6-0.9-2.4-1.2
			c-0.9-0.3-1.8-0.5-2.7-0.5c-0.6,0-1.2,0.1-1.8,0.2c-0.6,0.1-1.1,0.3-1.6,0.6c-0.5,0.3-0.9,0.6-1.2,1.1c-0.3,0.5-0.5,1-0.5,1.8
			c0,0.8,0.1,1.5,0.3,2.1s0.7,1.2,1.4,1.8l8,5.4c1.5,1,2.6,2,3.5,2.9c0.9,1,1.6,1.9,2.1,2.9c0.5,0.9,0.9,1.9,1.1,2.8
			c0.2,0.9,0.3,1.9,0.3,2.8c0,2.6-0.6,4.8-1.8,6.8c-1.2,2-2.7,3.6-4.6,4.9c-1.9,1.3-4,2.3-6.4,3s-4.8,1-7.2,1
			c-1.8,0-3.6-0.2-5.3-0.6c-1.7-0.4-3.3-1-4.7-1.8L81.6,60.2z"/>
		<path id="XMLID_34_" class="st0" d="M133.6,39c-0.4,3-0.8,6-1.1,9s-0.6,5.8-0.7,8.4c0,1.1,0.1,2,0.3,2.8c0.2,0.7,0.4,1.3,0.8,1.8
			c0.3,0.4,0.7,0.7,1.2,0.9c0.5,0.2,1,0.3,1.5,0.3c0.9,0,1.9-0.1,3-0.4s2.2-0.6,3.3-1.1c0.3-0.1,0.6-0.3,0.9-0.3
			c0.2-0.1,0.5-0.1,0.6-0.1c0.3,0,0.5,0.1,0.6,0.4c0.1,0.3,0.2,0.7,0.3,1.4c0.1,0.6,0.3,1.5,0.5,2.6c0.2,1.1,0.5,2.5,1,4.1
			c0,0.1,0.1,0.3,0.1,0.4c0,0.1,0,0.2,0,0.3c0,0.4-0.2,0.7-0.5,0.9c-0.3,0.2-0.8,0.4-1.5,0.6c-1.2,0.4-2.4,0.8-3.7,1.2
			c-1.3,0.4-2.6,0.8-3.9,1.1s-2.5,0.6-3.7,0.8s-2.2,0.3-3.1,0.3c-4.8,0-8.3-1.2-10.4-3.6c-2.2-2.4-3.3-6-3.3-10.9
			c0-0.8,0-1.7,0.1-2.6c0.1-0.9,0.1-1.8,0.2-2.7c0.3-2.9,0.5-5.6,0.8-8.1c0.2-2.6,0.4-5,0.7-7.4H113c-1.5,0-2.7-0.1-3.3-0.2
			s-1-0.4-1-0.8c0-0.1,0.1-0.4,0.4-0.9c0.3-0.5,0.7-1.1,1.1-1.8c0.4-0.7,0.9-1.5,1.4-2.3s1-1.6,1.5-2.3s0.9-1.3,1.2-1.8
			c0.3-0.5,0.6-0.8,0.6-0.9h3c0.3-2.2,0.5-4,0.6-5.5s0.3-2.7,0.4-3.7c0.1-1,0.2-1.7,0.3-2.3c0.1-0.5,0.2-0.9,0.3-1.2
			c0.1-0.3,0.2-0.4,0.4-0.5c0.2-0.1,0.4-0.1,0.6-0.2c1.3-0.3,2.5-0.5,3.7-0.7c1.2-0.2,2.4-0.4,3.6-0.7c1.2-0.2,2.4-0.5,3.7-0.8
			c1.2-0.3,2.5-0.7,3.9-1.1c0.1,0,0.1,0,0.2,0c0,0,0.1,0,0.2,0c0.3,0,0.5,0.1,0.5,0.3V12c-0.1,1.6-0.4,3.8-0.7,6.6s-0.6,6-1,9.5
			h11.5c0.2,0,0.5,0.1,0.7,0.2s0.3,0.4,0.3,0.8c0,0.1-0.2,0.7-0.5,1.5c-0.3,0.9-0.8,2-1.5,3.5l-1.5,3.5c-0.2,0.4-0.4,0.7-0.6,0.9
			c-0.2,0.2-0.7,0.3-1.3,0.4H133.6z"/>
		<path id="XMLID_32_" class="st0" d="M146.2,35.8c0.3-3.9,0.6-7.8,0.8-11.6s0.5-7.8,0.7-11.8c0.1-0.9,0.2-1.6,0.3-2
			c0.1-0.4,0.5-0.6,1-0.7c2.7-0.5,5.3-1,8-1.5c2.7-0.5,5.4-1.2,8-2c0.1,0,0.2,0,0.4,0c0.3,0,0.5,0.1,0.5,0.4l-5.6,61.3v0.7
			c0,0.3-0.1,0.5-0.3,0.6c-0.2,0.2-0.7,0.3-1.4,0.5l-11.2,4.1c-0.3,0.1-0.7,0.3-1.2,0.5s-1,0.2-1.5,0.2c-0.4,0-0.8-0.1-1.1-0.3
			c-0.3-0.2-0.5-0.5-0.5-1V73c0.2-2.9,0.5-5.7,0.7-8.5c0.2-2.8,0.4-5.6,0.7-8.6c0.2-2.9,0.5-6.1,0.8-9.4
			C145.5,43.3,145.8,39.7,146.2,35.8z"/>
		<path id="XMLID_30_" class="st0" d="M161.2,73.7c0.1-1.3,0.1-2.4,0.1-3.2c0-0.8,0.1-1.4,0.1-1.8c0-0.4,0-0.7,0-0.9s0-0.3,0-0.5
			s0-0.4,0-0.6c0-0.2,0-0.6,0.1-1.1c0-0.5,0.1-1.3,0.1-2.2c0.1-0.9,0.1-2.2,0.2-3.7c0.1-0.9,0.2-1.6,0.3-2c0.1-0.4,0.5-0.6,1-0.7
			c2.5,0,5.1,0,7.9,0c2.7,0,5.3,0,7.8-0.1c0.3,0,0.5,0.1,0.6,0.2s0.3,0.4,0.3,0.8l-1.2,13.5c-0.1,0.9-0.2,1.6-0.3,2
			c-0.1,0.4-0.4,0.6-1,0.6c-2.4,0-4.9,0.1-7.5,0.1c-2.6,0-5.2,0-8,0c-0.2,0-0.3,0-0.4,0c-0.1,0-0.1-0.1-0.1-0.3V73.7z"/>
		<path id="XMLID_27_" class="st0" d="M180.8,53.9c0.4-3.9,0.7-7.8,1.1-11.6c0.4-3.8,0.7-7.8,1-11.8c0.1-0.9,0.2-1.6,0.3-2
			s0.5-0.6,1-0.7c2.4-0.5,5-1,7.6-1.5c2.7-0.5,5.2-1.2,7.7-2c0.1,0,0.2,0,0.4,0c0.3,0,0.5,0.1,0.5,0.3l-3.9,41.8
			c-0.1,0.9-0.2,1.6-0.3,2c-0.1,0.4-0.4,0.6-0.9,0.7c-2.4,0.7-4.9,1.6-7.4,2.5c-2.5,0.9-5.1,1.8-7.9,2.8c-0.1,0-0.2,0-0.4,0
			c-0.3,0-0.5-0.1-0.5-0.4c0,0,0-0.4,0.1-1.2s0.1-1.7,0.2-2.9s0.2-2.5,0.3-3.9c0.1-1.5,0.2-2.9,0.4-4.4s0.3-2.9,0.4-4.2
			C180.6,56,180.7,54.8,180.8,53.9z M184,19.6c0.1-1.2,0.2-2.2,0.2-2.8s0.1-1.2,0.1-1.5c0-0.3,0-0.5,0-0.6c0-0.1,0-0.2,0-0.2
			c0,0,0-0.1,0-0.3c0-0.1,0-0.4,0.1-0.8c0-0.4,0.1-1,0.1-1.8c0.1-0.8,0.1-1.9,0.3-3.3c0.1-0.9,0.2-1.6,0.3-2s0.5-0.6,1-0.7
			c2.4-0.5,5-1,7.6-1.5c2.7-0.5,5.2-1.2,7.7-2c0.1,0,0.2,0,0.4,0c0.1,0.2,0.2,0.3,0.3,0.3l0.1,0.1l-0.9,11.8c-0.1,0.9-0.2,1.6-0.3,2
			c-0.1,0.4-0.4,0.6-0.9,0.7c-2.4,0.5-4.9,1-7.4,1.5c-2.5,0.5-5.1,1.1-7.9,1.6c-0.1,0-0.2,0-0.4,0C184.2,20.1,184,19.9,184,19.6z"/>
		<path id="XMLID_25_" class="st0" d="M233.4,73.6c-0.3,0.1-0.7,0.2-1.2,0.4c-0.5,0.2-1,0.3-1.5,0.3c-0.4,0-0.8-0.1-1.1-0.3
			c-0.3-0.2-0.5-0.5-0.5-1v-0.3c0.2-1.5,0.3-2.9,0.4-3.9c0.1-1.1,0.2-2,0.3-2.9s0.2-1.7,0.3-2.6c0.1-0.9,0.2-1.9,0.3-3
			c0.1-1.2,0.3-2.5,0.4-4.1c0.2-1.6,0.4-3.6,0.6-5.9c0.1-1.5,0.3-2.9,0.4-4.5c0.1-1.5,0.2-2.9,0.2-4.2c0-0.9-0.1-1.7-0.2-2.4
			s-0.4-1.4-0.7-1.9c-0.3-0.5-0.8-0.9-1.4-1.2c-0.6-0.3-1.3-0.4-2.2-0.4c-0.7,0-1.6,0.1-2.7,0.4c-1.2,0.3-2.3,0.8-3.5,1.4
			c-1.1,0.7-2.2,1.5-3,2.6c-0.9,1.1-1.4,2.4-1.5,4c-0.2,2.1-0.3,3.9-0.5,5.4s-0.3,2.8-0.4,3.8s-0.2,1.9-0.3,2.6
			c-0.1,0.7-0.1,1.2-0.2,1.7c0,0.1-0.1,0.4-0.1,0.9c-0.1,0.5-0.1,1.1-0.2,1.8c-0.1,0.7-0.1,1.5-0.2,2.3c-0.1,0.8-0.1,1.6-0.2,2.3
			c-0.1,0.7-0.1,1.3-0.2,1.8c0,0.5-0.1,0.8-0.1,0.9c0,0.2,0,0.4,0,0.6c0,0.2,0,0.3,0,0.5c0,0.2-0.1,0.4-0.3,0.6
			c-0.2,0.2-0.7,0.3-1.4,0.5l-11.4,3.9c-0.3,0.1-0.7,0.3-1.2,0.4c-0.5,0.2-1,0.3-1.5,0.3c-0.4,0-0.8-0.1-1.1-0.3
			c-0.3-0.2-0.5-0.5-0.5-1l3.9-43.9c0.1-0.9,0.2-1.6,0.3-2s0.5-0.6,1-0.7c2.6-0.5,5.3-1,8-1.6c2.7-0.5,5.4-1.2,8-2
			c0.2,0,0.4,0,0.4,0.1c0,0.1,0.1,0.2,0.1,0.3c0,0.1,0,0.1,0,0.3c0,0.1-0.1,0.4-0.1,0.8c-0.1,0.4-0.2,1-0.3,1.8s-0.3,2-0.5,3.4
			c2-1.1,3.8-2.1,5.6-2.8s3.4-1.2,4.9-1.6c1.5-0.4,3-0.6,4.3-0.8c1.3-0.1,2.6-0.2,3.8-0.2c4,0,7,1.2,8.8,3.7c1.8,2.4,2.7,6.1,2.7,11
			c0,0.7,0,1.4,0,2.1c0,0.7-0.1,1.5-0.2,2.3l-2,18.5c-0.1,1.2-0.2,2.3-0.3,3.3c0,1,0,2.2,0,3.5c0,0.2,0,0.4,0,0.6c0,0.2,0,0.3,0,0.4
			c0,0.3-0.1,0.5-0.3,0.6c-0.2,0.1-0.7,0.3-1.4,0.6L233.4,73.6z"/>
		<path id="XMLID_23_" class="st0" d="M269.5,6.9l-1.5,14.9c-0.2,2-0.4,4-0.6,6.1s-0.4,4-0.6,5.9c-0.2,1.9-0.4,3.6-0.6,5.2
			c-0.2,1.6-0.3,2.9-0.4,3.9l3-3.3l4.8-5.6c0.6-0.7,1.2-1.4,1.8-2.1s1.1-1.3,1.5-1.8c0.5-0.5,0.8-1,1.1-1.3c0.3-0.4,0.5-0.6,0.5-0.6
			l17.2-1.2c0.1,0,0.2,0,0.3,0s0.2,0,0.3,0c0.5,0,0.7,0.1,0.7,0.4c0,0.2-0.3,0.6-0.9,1.3l-13.4,15c-0.6,0.7-1.3,1.4-2.1,2.3
			s-1.7,1.8-2.7,2.9l6.3,7.5l10.8,11.6c0.1,0.1,0.2,0.3,0.4,0.3c0.2,0.1,0.3,0.1,0.5,0.2c0.2,0.1,0.3,0.1,0.4,0.2
			c0.1,0.1,0.2,0.2,0.2,0.3c0,0.1,0,0.2-0.1,0.3s-0.2,0.2-0.4,0.3c-0.3,0.2-0.7,0.5-1.4,0.9s-1.4,0.8-2.3,1.2
			c-0.9,0.5-1.8,0.9-2.7,1.4s-1.9,0.9-2.8,1.3c-0.9,0.4-1.8,0.7-2.5,0.9c-0.8,0.2-1.4,0.4-1.8,0.4c-0.3,0-0.7-0.1-1-0.3
			c-0.3-0.2-0.7-0.5-1.1-0.9c-0.5-0.6-1.2-1.5-2-2.5c-0.8-1-1.7-2.1-2.6-3.3s-1.9-2.5-2.9-3.8c-1-1.3-1.9-2.5-2.8-3.7
			c-0.9-1.2-1.7-2.3-2.4-3.2s-1.3-1.7-1.7-2.3c-0.1,0.1-0.3,0.3-0.4,0.3c-0.1,0.1-0.3,0.2-0.4,0.3c-0.1,0.1-0.2,0.3-0.3,0.4
			c-0.1,0.2-0.1,0.4-0.1,0.7c0,0.1,0,0.4-0.1,1c-0.1,0.5-0.1,1.2-0.2,1.9c-0.1,0.7-0.2,1.5-0.2,2.3c-0.1,0.8-0.2,1.6-0.2,2.3
			c-0.1,0.7-0.1,1.4-0.2,1.9c-0.1,0.5-0.1,0.9-0.1,1c0,0.2,0,0.4,0,0.5c0,0.1,0,0.3,0,0.4c0,0.3-0.1,0.6-0.3,0.7s-0.7,0.4-1.6,0.6
			l-11.2,3.6c-0.3,0.1-0.7,0.3-1.2,0.4c-0.5,0.2-1,0.3-1.5,0.3c-0.4,0-0.8-0.1-1.1-0.3c-0.3-0.2-0.5-0.6-0.5-1.1l5.4-61.8
			c0-0.1,0-0.3,0-0.4s0-0.3,0-0.4c0-0.3,0.1-0.5,0.3-0.7s0.7-0.4,1.5-0.6L265.2,6c0.3-0.1,0.7-0.2,1.2-0.4c0.5-0.2,1-0.3,1.5-0.3
			c0.4,0,0.7,0.1,1.1,0.3c0.3,0.2,0.5,0.5,0.5,1c0,0.1,0,0.1,0,0.2S269.5,6.9,269.5,6.9z"/>
	</g>
	<g id="XMLID_1_">
		<path id="XMLID_3_" class="st1" d="M9,72.7c0-0.3,0.1-1,0.2-2s0.2-2.4,0.4-4c0.1-1.6,0.3-3.4,0.5-5.5c0.2-2.1,0.4-4.3,0.6-6.7
			s0.5-4.9,0.7-7.5c0.2-2.6,0.5-5.2,0.8-7.9H6.4c-1.5,0-2.7-0.1-3.3-0.2s-1-0.4-1-0.8c0-0.1,0.1-0.4,0.4-0.9s0.7-1.1,1.1-1.8
			C4,34.7,4.4,34,5,33.2s1-1.6,1.5-2.3s0.9-1.3,1.2-1.8c0.3-0.5,0.6-0.8,0.6-0.9h5.2l0.9-6.8c0.4-3.6,1.1-6.6,2.2-9.1
			c1-2.5,2.3-4.4,3.9-6s3.3-2.6,5.3-3.3s4.1-1,6.4-1s4.7,0.3,7.1,0.8s5,1.3,7.5,2.3c0.5,0.2,1,0.4,1.2,0.6s0.4,0.4,0.4,0.6
			c0,0.2-0.1,0.5-0.3,0.9c-0.9,1.8-1.6,3.2-2,4.3s-0.8,1.9-1.1,2.6s-0.5,1.1-0.6,1.3s-0.4,0.3-0.8,0.3c-0.2,0-0.4,0-0.5-0.1
			c-0.2-0.1-0.4-0.2-0.7-0.3c-1-0.4-2-0.7-3-1c-1-0.3-2-0.5-2.9-0.5c-1.3,0-2.4,0.4-3.3,1.2c-0.9,0.8-1.7,2.3-2.2,4.5
			c-0.3,1.3-0.6,2.7-0.8,4.2c-0.2,1.5-0.4,3-0.5,4.4H41c0.2,0,0.5,0.1,0.7,0.2s0.3,0.4,0.3,0.8c0,0.1-0.2,0.7-0.5,1.5
			c-0.3,0.9-0.8,2-1.5,3.5l-1.5,3.5c-0.2,0.4-0.4,0.7-0.6,0.9c-0.2,0.2-0.7,0.3-1.3,0.4h-7.4c-0.3,3-0.6,5.9-0.9,8.8
			c-0.3,2.9-0.6,5.7-0.8,8.2c-0.3,2.6-0.5,4.8-0.7,6.8c-0.2,2-0.4,3.5-0.5,4.6c0,0.1,0,0.2,0,0.5c0,0.1,0,0.2,0,0.3s0,0.2,0,0.2
			c0,0.3-0.1,0.5-0.3,0.6c-0.2,0.2-0.7,0.3-1.4,0.5l-11.3,4c-0.3,0.1-0.7,0.3-1.2,0.4s-1,0.3-1.5,0.3S9.6,74.2,9.3,74
			C9.1,73.7,9,73.3,9,72.7z"/>
		<path id="XMLID_5_" class="st1" d="M79.1,63.4c0,0.1,0,0.2,0,0.3c0,0.1,0,0.2,0,0.3c0,0.7,0.1,1.3,0.3,1.8
			c0.2,0.5,0.5,0.9,0.8,1.2c0.3,0.3,0.5,0.5,0.8,0.7c0.2,0.2,0.3,0.4,0.3,0.5c0,0.4-0.4,0.8-1.3,1.1l-11.5,4.9c0,0-0.1,0-0.3,0
			c-0.2,0-0.5-0.2-0.7-0.6c-0.2-0.4-0.5-0.9-0.7-1.5c-0.2-0.6-0.4-1.3-0.6-2c-0.2-0.7-0.4-1.4-0.5-2c-1.8,2.1-3.7,3.6-5.8,4.6
			c-2.1,1-4.2,1.5-6.2,1.5c-2.4,0-4.7-0.5-7-1.6s-4.3-2.6-6.1-4.5s-3.2-4.3-4.3-7.1c-1.1-2.8-1.6-5.9-1.6-9.4
			c0-4.1,0.6-7.8,1.8-11.2c1.2-3.4,2.8-6.3,4.8-8.7s4.4-4.3,7.1-5.6s5.6-2,8.6-2c2.1,0,4.2,0.4,6.1,1.3c1.9,0.9,3.7,2,5.4,3.4
			c0.2-0.9,0.3-1.5,0.3-2.1c0-0.5,0.1-0.9,0.2-1.2c0.1-0.3,0.3-0.5,0.6-0.6c0.3-0.1,0.8-0.2,1.4-0.2c2.1-0.3,4.1-0.6,6.2-0.8
			s4.2-0.4,6.4-0.5L79.1,63.4z M66.2,47.3c0.3-1.6,0.5-3.2,0.6-4.6c0.1-1.4,0.2-2.8,0.2-4c-0.5-0.3-1-0.7-1.5-1.1s-1.1-0.7-1.7-1.1
			c-0.6-0.3-1.3-0.6-1.9-0.8s-1.4-0.3-2.1-0.3c-1.5,0-2.8,0.5-3.9,1.5c-1,1-1.9,2.2-2.5,3.7c-0.6,1.5-1.1,3-1.4,4.6
			c-0.3,1.6-0.4,3.1-0.4,4.3c0,4.5,0.6,7.8,1.8,9.9c1.2,2.1,2.8,3.2,5,3.2c0.9,0,1.8-0.2,2.9-0.7c1.1-0.5,2.1-1.2,3.2-2L66.2,47.3z"
			/>
		<path id="XMLID_8_" class="st1" d="M81.6,60.2C81.6,60.2,81.6,60.2,81.6,60.2c0-0.1,0-0.1,0-0.1c0-0.4,0.2-0.6,0.6-0.6
			c0.3,0,0.5,0.1,0.7,0.3c1.1,1.1,2.5,2,3.9,2.7c1.5,0.7,3.1,1,4.8,1c0.5,0,1-0.1,1.6-0.2c0.6-0.1,1.2-0.3,1.7-0.5s1-0.5,1.4-0.9
			c0.4-0.4,0.5-0.9,0.5-1.4c0-0.6-0.2-1.2-0.5-1.7c-0.3-0.5-0.7-1-1.2-1.3c-0.3-0.2-0.8-0.6-1.5-1.1c-0.7-0.5-1.5-1-2.3-1.6
			c-0.8-0.6-1.6-1.1-2.3-1.6c-0.7-0.5-1.2-0.9-1.5-1.1c-1.3-1-2.3-2-3.1-3c-0.8-1-1.3-2-1.7-3.1c-0.4-1.1-0.7-2.2-0.8-3.4
			c-0.1-1.2-0.2-2.4-0.2-3.7c0-2,0.5-3.9,1.6-5.7c1.1-1.8,2.5-3.3,4.2-4.7c1.7-1.3,3.7-2.4,5.9-3.2c2.2-0.8,4.4-1.2,6.7-1.2
			c1.9,0,3.7,0.3,5.6,0.9c1.8,0.6,3.5,1.5,5.1,2.9c0.1,1.8,0.2,3.6,0.3,5.3c0.1,1.7,0.1,3.6,0.3,5.5c0,0.4-0.1,0.6-0.3,0.8
			c-0.2,0.1-0.4,0.2-0.6,0.2c-0.2,0-0.4-0.1-0.5-0.2c-0.7-0.6-1.3-1.3-2-1.9c-0.7-0.6-1.4-1.2-2.2-1.6c-0.8-0.5-1.6-0.9-2.4-1.2
			c-0.9-0.3-1.8-0.5-2.7-0.5c-0.6,0-1.2,0.1-1.8,0.2c-0.6,0.1-1.1,0.3-1.6,0.6c-0.5,0.3-0.9,0.6-1.2,1.1c-0.3,0.5-0.5,1-0.5,1.8
			c0,0.8,0.1,1.5,0.3,2.1s0.7,1.2,1.4,1.8l8,5.4c1.5,1,2.6,2,3.5,2.9c0.9,1,1.6,1.9,2.1,2.9c0.5,0.9,0.9,1.9,1.1,2.8
			c0.2,0.9,0.3,1.9,0.3,2.8c0,2.6-0.6,4.8-1.8,6.8c-1.2,2-2.7,3.6-4.6,4.9c-1.9,1.3-4,2.3-6.4,3s-4.8,1-7.2,1
			c-1.8,0-3.6-0.2-5.3-0.6c-1.7-0.4-3.3-1-4.7-1.8L81.6,60.2z"/>
		<path id="XMLID_10_" class="st1" d="M133.6,39c-0.4,3-0.8,6-1.1,9s-0.6,5.8-0.7,8.4c0,1.1,0.1,2,0.3,2.8c0.2,0.7,0.4,1.3,0.8,1.8
			c0.3,0.4,0.7,0.7,1.2,0.9c0.5,0.2,1,0.3,1.5,0.3c0.9,0,1.9-0.1,3-0.4s2.2-0.6,3.3-1.1c0.3-0.1,0.6-0.3,0.9-0.3
			c0.2-0.1,0.5-0.1,0.6-0.1c0.3,0,0.5,0.1,0.6,0.4c0.1,0.3,0.2,0.7,0.3,1.4c0.1,0.6,0.3,1.5,0.5,2.6c0.2,1.1,0.5,2.5,1,4.1
			c0,0.1,0.1,0.3,0.1,0.4c0,0.1,0,0.2,0,0.3c0,0.4-0.2,0.7-0.5,0.9c-0.3,0.2-0.8,0.4-1.5,0.6c-1.2,0.4-2.4,0.8-3.7,1.2
			c-1.3,0.4-2.6,0.8-3.9,1.1s-2.5,0.6-3.7,0.8s-2.2,0.3-3.1,0.3c-4.8,0-8.3-1.2-10.4-3.6c-2.2-2.4-3.3-6-3.3-10.9
			c0-0.8,0-1.7,0.1-2.6c0.1-0.9,0.1-1.8,0.2-2.7c0.3-2.9,0.5-5.6,0.8-8.1c0.2-2.6,0.4-5,0.7-7.4H113c-1.5,0-2.7-0.1-3.3-0.2
			s-1-0.4-1-0.8c0-0.1,0.1-0.4,0.4-0.9c0.3-0.5,0.7-1.1,1.1-1.8c0.4-0.7,0.9-1.5,1.4-2.3s1-1.6,1.5-2.3s0.9-1.3,1.2-1.8
			c0.3-0.5,0.6-0.8,0.6-0.9h3c0.3-2.2,0.5-4,0.6-5.5s0.3-2.7,0.4-3.7c0.1-1,0.2-1.7,0.3-2.3c0.1-0.5,0.2-0.9,0.3-1.2
			c0.1-0.3,0.2-0.4,0.4-0.5c0.2-0.1,0.4-0.1,0.6-0.2c1.3-0.3,2.5-0.5,3.7-0.7c1.2-0.2,2.4-0.4,3.6-0.7c1.2-0.2,2.4-0.5,3.7-0.8
			c1.2-0.3,2.5-0.7,3.9-1.1c0.1,0,0.1,0,0.2,0c0,0,0.1,0,0.2,0c0.3,0,0.5,0.1,0.5,0.3V12c-0.1,1.6-0.4,3.8-0.7,6.6s-0.6,6-1,9.5
			h11.5c0.2,0,0.5,0.1,0.7,0.2s0.3,0.4,0.3,0.8c0,0.1-0.2,0.7-0.5,1.5c-0.3,0.9-0.8,2-1.5,3.5l-1.5,3.5c-0.2,0.4-0.4,0.7-0.6,0.9
			c-0.2,0.2-0.7,0.3-1.3,0.4H133.6z"/>
		<path id="XMLID_12_" class="st1" d="M146.2,35.8c0.3-3.9,0.6-7.8,0.8-11.6s0.5-7.8,0.7-11.8c0.1-0.9,0.2-1.6,0.3-2
			c0.1-0.4,0.5-0.6,1-0.7c2.7-0.5,5.3-1,8-1.5c2.7-0.5,5.4-1.2,8-2c0.1,0,0.2,0,0.4,0c0.3,0,0.5,0.1,0.5,0.4l-5.6,61.3v0.7
			c0,0.3-0.1,0.5-0.3,0.6c-0.2,0.2-0.7,0.3-1.4,0.5l-11.2,4.1c-0.3,0.1-0.7,0.3-1.2,0.5s-1,0.2-1.5,0.2c-0.4,0-0.8-0.1-1.1-0.3
			c-0.3-0.2-0.5-0.5-0.5-1V73c0.2-2.9,0.5-5.7,0.7-8.5c0.2-2.8,0.4-5.6,0.7-8.6c0.2-2.9,0.5-6.1,0.8-9.4
			C145.5,43.3,145.8,39.7,146.2,35.8z"/>
		<path id="XMLID_14_" class="st1" d="M161.2,73.7c0.1-1.3,0.1-2.4,0.1-3.2c0-0.8,0.1-1.4,0.1-1.8c0-0.4,0-0.7,0-0.9s0-0.3,0-0.5
			s0-0.4,0-0.6c0-0.2,0-0.6,0.1-1.1c0-0.5,0.1-1.3,0.1-2.2c0.1-0.9,0.1-2.2,0.2-3.7c0.1-0.9,0.2-1.6,0.3-2c0.1-0.4,0.5-0.6,1-0.7
			c2.5,0,5.1,0,7.9,0c2.7,0,5.3,0,7.8-0.1c0.3,0,0.5,0.1,0.6,0.2s0.3,0.4,0.3,0.8l-1.2,13.5c-0.1,0.9-0.2,1.6-0.3,2
			c-0.1,0.4-0.4,0.6-1,0.6c-2.4,0-4.9,0.1-7.5,0.1c-2.6,0-5.2,0-8,0c-0.2,0-0.3,0-0.4,0c-0.1,0-0.1-0.1-0.1-0.3V73.7z"/>
		<path id="XMLID_16_" class="st1" d="M180.8,53.9c0.4-3.9,0.7-7.8,1.1-11.6c0.4-3.8,0.7-7.8,1-11.8c0.1-0.9,0.2-1.6,0.3-2
			s0.5-0.6,1-0.7c2.4-0.5,5-1,7.6-1.5c2.7-0.5,5.2-1.2,7.7-2c0.1,0,0.2,0,0.4,0c0.3,0,0.5,0.1,0.5,0.3l-3.9,41.8
			c-0.1,0.9-0.2,1.6-0.3,2c-0.1,0.4-0.4,0.6-0.9,0.7c-2.4,0.7-4.9,1.6-7.4,2.5c-2.5,0.9-5.1,1.8-7.9,2.8c-0.1,0-0.2,0-0.4,0
			c-0.3,0-0.5-0.1-0.5-0.4c0,0,0-0.4,0.1-1.2s0.1-1.7,0.2-2.9s0.2-2.5,0.3-3.9c0.1-1.5,0.2-2.9,0.4-4.4s0.3-2.9,0.4-4.2
			C180.6,56,180.7,54.8,180.8,53.9z M184,19.6c0.1-1.2,0.2-2.2,0.2-2.8s0.1-1.2,0.1-1.5c0-0.3,0-0.5,0-0.6c0-0.1,0-0.2,0-0.2
			c0,0,0-0.1,0-0.3c0-0.1,0-0.4,0.1-0.8c0-0.4,0.1-1,0.1-1.8c0.1-0.8,0.1-1.9,0.3-3.3c0.1-0.9,0.2-1.6,0.3-2s0.5-0.6,1-0.7
			c2.4-0.5,5-1,7.6-1.5c2.7-0.5,5.2-1.2,7.7-2c0.1,0,0.2,0,0.4,0c0.1,0.2,0.2,0.3,0.3,0.3l0.1,0.1l-0.9,11.8c-0.1,0.9-0.2,1.6-0.3,2
			c-0.1,0.4-0.4,0.6-0.9,0.7c-2.4,0.5-4.9,1-7.4,1.5c-2.5,0.5-5.1,1.1-7.9,1.6c-0.1,0-0.2,0-0.4,0C184.2,20.1,184,19.9,184,19.6z"/>
		<path id="XMLID_19_" class="st1" d="M233.4,73.6c-0.3,0.1-0.7,0.2-1.2,0.4c-0.5,0.2-1,0.3-1.5,0.3c-0.4,0-0.8-0.1-1.1-0.3
			c-0.3-0.2-0.5-0.5-0.5-1v-0.3c0.2-1.5,0.3-2.9,0.4-3.9c0.1-1.1,0.2-2,0.3-2.9s0.2-1.7,0.3-2.6c0.1-0.9,0.2-1.9,0.3-3
			c0.1-1.2,0.3-2.5,0.4-4.1c0.2-1.6,0.4-3.6,0.6-5.9c0.1-1.5,0.3-2.9,0.4-4.5c0.1-1.5,0.2-2.9,0.2-4.2c0-0.9-0.1-1.7-0.2-2.4
			s-0.4-1.4-0.7-1.9c-0.3-0.5-0.8-0.9-1.4-1.2c-0.6-0.3-1.3-0.4-2.2-0.4c-0.7,0-1.6,0.1-2.7,0.4c-1.2,0.3-2.3,0.8-3.5,1.4
			c-1.1,0.7-2.2,1.5-3,2.6c-0.9,1.1-1.4,2.4-1.5,4c-0.2,2.1-0.3,3.9-0.5,5.4s-0.3,2.8-0.4,3.8s-0.2,1.9-0.3,2.6
			c-0.1,0.7-0.1,1.2-0.2,1.7c0,0.1-0.1,0.4-0.1,0.9c-0.1,0.5-0.1,1.1-0.2,1.8c-0.1,0.7-0.1,1.5-0.2,2.3c-0.1,0.8-0.1,1.6-0.2,2.3
			c-0.1,0.7-0.1,1.3-0.2,1.8c0,0.5-0.1,0.8-0.1,0.9c0,0.2,0,0.4,0,0.6c0,0.2,0,0.3,0,0.5c0,0.2-0.1,0.4-0.3,0.6
			c-0.2,0.2-0.7,0.3-1.4,0.5l-11.4,3.9c-0.3,0.1-0.7,0.3-1.2,0.4c-0.5,0.2-1,0.3-1.5,0.3c-0.4,0-0.8-0.1-1.1-0.3
			c-0.3-0.2-0.5-0.5-0.5-1l3.9-43.9c0.1-0.9,0.2-1.6,0.3-2s0.5-0.6,1-0.7c2.6-0.5,5.3-1,8-1.6c2.7-0.5,5.4-1.2,8-2
			c0.2,0,0.4,0,0.4,0.1c0,0.1,0.1,0.2,0.1,0.3c0,0.1,0,0.1,0,0.3c0,0.1-0.1,0.4-0.1,0.8c-0.1,0.4-0.2,1-0.3,1.8s-0.3,2-0.5,3.4
			c2-1.1,3.8-2.1,5.6-2.8s3.4-1.2,4.9-1.6c1.5-0.4,3-0.6,4.3-0.8c1.3-0.1,2.6-0.2,3.8-0.2c4,0,7,1.2,8.8,3.7c1.8,2.4,2.7,6.1,2.7,11
			c0,0.7,0,1.4,0,2.1c0,0.7-0.1,1.5-0.2,2.3l-2,18.5c-0.1,1.2-0.2,2.3-0.3,3.3c0,1,0,2.2,0,3.5c0,0.2,0,0.4,0,0.6c0,0.2,0,0.3,0,0.4
			c0,0.3-0.1,0.5-0.3,0.6c-0.2,0.1-0.7,0.3-1.4,0.6L233.4,73.6z"/>
		<path id="XMLID_21_" class="st1" d="M269.5,6.9l-1.5,14.9c-0.2,2-0.4,4-0.6,6.1s-0.4,4-0.6,5.9c-0.2,1.9-0.4,3.6-0.6,5.2
			c-0.2,1.6-0.3,2.9-0.4,3.9l3-3.3l4.8-5.6c0.6-0.7,1.2-1.4,1.8-2.1s1.1-1.3,1.5-1.8c0.5-0.5,0.8-1,1.1-1.3c0.3-0.4,0.5-0.6,0.5-0.6
			l17.2-1.2c0.1,0,0.2,0,0.3,0s0.2,0,0.3,0c0.5,0,0.7,0.1,0.7,0.4c0,0.2-0.3,0.6-0.9,1.3l-13.4,15c-0.6,0.7-1.3,1.4-2.1,2.3
			s-1.7,1.8-2.7,2.9l6.3,7.5l10.8,11.6c0.1,0.1,0.2,0.3,0.4,0.3c0.2,0.1,0.3,0.1,0.5,0.2c0.2,0.1,0.3,0.1,0.4,0.2
			c0.1,0.1,0.2,0.2,0.2,0.3c0,0.1,0,0.2-0.1,0.3s-0.2,0.2-0.4,0.3c-0.3,0.2-0.7,0.5-1.4,0.9s-1.4,0.8-2.3,1.2
			c-0.9,0.5-1.8,0.9-2.7,1.4s-1.9,0.9-2.8,1.3c-0.9,0.4-1.8,0.7-2.5,0.9c-0.8,0.2-1.4,0.4-1.8,0.4c-0.3,0-0.7-0.1-1-0.3
			c-0.3-0.2-0.7-0.5-1.1-0.9c-0.5-0.6-1.2-1.5-2-2.5c-0.8-1-1.7-2.1-2.6-3.3s-1.9-2.5-2.9-3.8c-1-1.3-1.9-2.5-2.8-3.7
			c-0.9-1.2-1.7-2.3-2.4-3.2s-1.3-1.7-1.7-2.3c-0.1,0.1-0.3,0.3-0.4,0.3c-0.1,0.1-0.3,0.2-0.4,0.3c-0.1,0.1-0.2,0.3-0.3,0.4
			c-0.1,0.2-0.1,0.4-0.1,0.7c0,0.1,0,0.4-0.1,1c-0.1,0.5-0.1,1.2-0.2,1.9c-0.1,0.7-0.2,1.5-0.2,2.3c-0.1,0.8-0.2,1.6-0.2,2.3
			c-0.1,0.7-0.1,1.4-0.2,1.9c-0.1,0.5-0.1,0.9-0.1,1c0,0.2,0,0.4,0,0.5c0,0.1,0,0.3,0,0.4c0,0.3-0.1,0.6-0.3,0.7s-0.7,0.4-1.6,0.6
			l-11.2,3.6c-0.3,0.1-0.7,0.3-1.2,0.4c-0.5,0.2-1,0.3-1.5,0.3c-0.4,0-0.8-0.1-1.1-0.3c-0.3-0.2-0.5-0.6-0.5-1.1l5.4-61.8
			c0-0.1,0-0.3,0-0.4s0-0.3,0-0.4c0-0.3,0.1-0.5,0.3-0.7s0.7-0.4,1.5-0.6L265.2,6c0.3-0.1,0.7-0.2,1.2-0.4c0.5-0.2,1-0.3,1.5-0.3
			c0.4,0,0.7,0.1,1.1,0.3c0.3,0.2,0.5,0.5,0.5,1c0,0.1,0,0.1,0,0.2S269.5,6.9,269.5,6.9z"/>
	</g>
</g>
</svg>
